<svg width="24" height="25" viewBox="0 0 24 25" fill="none" xmlns="http://www.w3.org/2000/svg">
<path d="M12 1.16797L14.9766 9.6889L24 9.88651L16.8162 15.3504L19.4163 23.9935L12 18.8494L4.58369 23.9935L7.18379 15.3504L0 9.88651L9.02338 9.6889L12 1.16797Z" fill="#F4CA51"/>
<path d="M24 9.88651L12 13.7857L14.9766 9.6889L24 9.88651ZM12 18.8494V13.7857L4.58369 23.9935L12 18.8494ZM12 13.7857L19.4163 23.9935L16.8162 15.3504L12 13.7857ZM9.02338 9.6889L12 13.7857V1.16797L9.02338 9.6889ZM7.18379 15.3504L12 13.7857L0 9.88651L7.18379 15.3504Z" fill="#A57D24"/>
</svg>
