<svg width="24" height="24" viewBox="0 0 24 24" fill="none" xmlns="http://www.w3.org/2000/svg">
<g clip-path="url(#clip0_681_18473)">
<path d="M12 0.667969L14.9766 9.1889L24 9.38651L16.8162 14.8504L19.4163 23.4935L12 18.3494L4.58369 23.4935L7.18379 14.8504L0 9.38651L9.02338 9.1889L12 0.667969Z" fill="#743089"/>
<path d="M24 9.38651L12 13.2857L14.9766 9.1889L24 9.38651ZM12 18.3494V13.2857L4.58369 23.4935L12 18.3494ZM12 13.2857L19.4163 23.4935L16.8162 14.8504L12 13.2857ZM9.02338 9.1889L12 13.2857V0.667969L9.02338 9.1889ZM7.18379 14.8504L12 13.2857L0 9.38651L7.18379 14.8504Z" fill="#904C95"/>
</g>
<defs>
<clipPath id="clip0_681_18473">
<rect width="24" height="24" fill="white"/>
</clipPath>
</defs>
</svg>
