<svg width="108" height="108" viewBox="0 0 108 108" fill="none" xmlns="http://www.w3.org/2000/svg">
<path d="M54 3L67.3948 41.3442L108 42.2335L75.6729 66.821L87.3734 105.715L54 82.5666L20.6266 105.715L32.3271 66.821L0 42.2335L40.6052 41.3442L54 3Z" fill="#F4CA51"/>
<path d="M108 42.2335L54 59.7799L67.3948 41.3442L108 42.2335ZM54 82.5666V59.7799L20.6266 105.715L54 82.5666ZM54 59.7799L87.3734 105.715L75.6729 66.821L54 59.7799ZM40.6052 41.3442L54 59.7799V3L40.6052 41.3442ZM32.3271 66.821L54 59.7799L0 42.2335L32.3271 66.821Z" fill="#A57D24"/>
<mask id="path-3-outside-1_370_283204" maskUnits="userSpaceOnUse" x="43" y="41" width="22" height="32" fill="black">
<rect fill="white" x="43" y="41" width="22" height="32"/>
<path d="M53.28 71.44C51.8933 71.44 50.4933 71.2933 49.08 71C47.6933 70.7333 46.4133 70.3467 45.24 69.84L46.56 63.72C48.72 64.6 50.68 65.04 52.44 65.04C54.6267 65.04 55.72 64.2133 55.72 62.56C55.72 61.4933 55.16 60.7333 54.04 60.28C52.92 59.8 51.0533 59.56 48.44 59.56V54.08C53.1867 54.08 55.56 53.1333 55.56 51.24C55.56 50.6533 55.28 50.2 54.72 49.88C54.1867 49.5333 53.44 49.36 52.48 49.36C50.24 49.36 48.2267 49.8267 46.44 50.76L44.88 45.12C47.4933 43.6267 50.44 42.88 53.72 42.88C56.4133 42.88 58.5333 43.4933 60.08 44.72C61.6267 45.92 62.4 47.5733 62.4 49.68C62.4 51.0133 62.0667 52.2533 61.4 53.4C60.76 54.52 59.84 55.4667 58.64 56.24C60.3733 56.8533 61.6267 57.7733 62.4 59C63.2 60.2 63.6 61.44 63.6 62.72C63.6 64.5067 63.1733 66.0533 62.32 67.36C61.4667 68.6667 60.2667 69.68 58.72 70.4C57.1733 71.0933 55.36 71.44 53.28 71.44Z"/>
</mask>
<path d="M53.28 71.44C51.8933 71.44 50.4933 71.2933 49.08 71C47.6933 70.7333 46.4133 70.3467 45.24 69.84L46.56 63.72C48.72 64.6 50.68 65.04 52.44 65.04C54.6267 65.04 55.72 64.2133 55.72 62.56C55.72 61.4933 55.16 60.7333 54.04 60.28C52.92 59.8 51.0533 59.56 48.44 59.56V54.08C53.1867 54.08 55.56 53.1333 55.56 51.24C55.56 50.6533 55.28 50.2 54.72 49.88C54.1867 49.5333 53.44 49.36 52.48 49.36C50.24 49.36 48.2267 49.8267 46.44 50.76L44.88 45.12C47.4933 43.6267 50.44 42.88 53.72 42.88C56.4133 42.88 58.5333 43.4933 60.08 44.72C61.6267 45.92 62.4 47.5733 62.4 49.68C62.4 51.0133 62.0667 52.2533 61.4 53.4C60.76 54.52 59.84 55.4667 58.64 56.24C60.3733 56.8533 61.6267 57.7733 62.4 59C63.2 60.2 63.6 61.44 63.6 62.72C63.6 64.5067 63.1733 66.0533 62.32 67.36C61.4667 68.6667 60.2667 69.68 58.72 70.4C57.1733 71.0933 55.36 71.44 53.28 71.44Z" fill="white"/>
<path d="M49.08 71L49.2832 70.0209L49.276 70.0194L49.2688 70.018L49.08 71ZM45.24 69.84L44.2625 69.6292L44.0892 70.4323L44.8436 70.7581L45.24 69.84ZM46.56 63.72L46.9373 62.7939L45.8337 62.3443L45.5825 63.5092L46.56 63.72ZM54.04 60.28L53.6461 61.1991L53.6554 61.2031L53.6648 61.2069L54.04 60.28ZM48.44 59.56H47.44V60.56H48.44V59.56ZM48.44 54.08V53.08H47.44V54.08H48.44ZM54.72 49.88L54.175 50.7184L54.199 50.734L54.2239 50.7482L54.72 49.88ZM46.44 50.76L45.4762 51.0266L45.8061 52.2194L46.903 51.6463L46.44 50.76ZM44.88 45.12L44.3839 44.2518L43.709 44.6374L43.9162 45.3866L44.88 45.12ZM60.08 44.72L59.4586 45.5035L59.467 45.5101L60.08 44.72ZM61.4 53.4L60.5355 52.8974L60.5318 52.9039L61.4 53.4ZM58.64 56.24L58.0983 55.3994L56.3857 56.5031L58.3064 57.1827L58.64 56.24ZM62.4 59L61.5541 59.5333L61.5609 59.5441L61.5679 59.5547L62.4 59ZM62.32 67.36L63.1573 67.9068L62.32 67.36ZM58.72 70.4L59.1291 71.3125L59.1356 71.3096L59.142 71.3066L58.72 70.4ZM53.28 70.44C51.9643 70.44 50.6324 70.3009 49.2832 70.0209L48.8768 71.9791C50.3542 72.2858 51.8223 72.44 53.28 72.44V70.44ZM49.2688 70.018C47.9461 69.7636 46.7366 69.397 45.6364 68.9219L44.8436 70.7581C46.0901 71.2963 47.4405 71.703 48.8912 71.982L49.2688 70.018ZM46.2175 70.0508L47.5375 63.9308L45.5825 63.5092L44.2625 69.6292L46.2175 70.0508ZM46.1827 64.6461C48.4256 65.5599 50.516 66.04 52.44 66.04V64.04C50.844 64.04 49.0144 63.6401 46.9373 62.7939L46.1827 64.6461ZM52.44 66.04C53.6308 66.04 54.7066 65.8199 55.5031 65.2177C56.3524 64.5755 56.72 63.6276 56.72 62.56H54.72C54.72 63.1457 54.541 63.4378 54.2969 63.6223C54.0001 63.8467 53.4359 64.04 52.44 64.04V66.04ZM56.72 62.56C56.72 61.8422 56.5279 61.1706 56.1051 60.5968C55.6886 60.0316 55.0993 59.6299 54.4152 59.3531L53.6648 61.2069C54.1007 61.3834 54.3514 61.5884 54.4949 61.7832C54.6321 61.9694 54.72 62.2112 54.72 62.56H56.72ZM54.4339 59.3609C53.1132 58.7948 51.0689 58.56 48.44 58.56V60.56C51.0378 60.56 52.7268 60.8052 53.6461 61.1991L54.4339 59.3609ZM49.44 59.56V54.08H47.44V59.56H49.44ZM48.44 55.08C50.8504 55.08 52.7843 54.8438 54.1505 54.2988C54.8422 54.0229 55.4465 53.6453 55.8823 53.1237C56.3331 52.5844 56.56 51.9418 56.56 51.24H54.56C54.56 51.4848 54.4903 51.6706 54.3477 51.8413C54.1901 52.0297 53.9045 52.2437 53.4095 52.4412C52.4024 52.8429 50.7763 53.08 48.44 53.08V55.08ZM56.56 51.24C56.56 50.2531 56.0501 49.4883 55.2161 49.0118L54.2239 50.7482C54.5099 50.9117 54.56 51.0535 54.56 51.24H56.56ZM55.265 49.0416C54.5065 48.5486 53.5415 48.36 52.48 48.36V50.36C53.3385 50.36 53.8668 50.5181 54.175 50.7184L55.265 49.0416ZM52.48 48.36C50.097 48.36 47.9219 48.8577 45.977 49.8736L46.903 51.6463C48.5314 50.7957 50.383 50.36 52.48 50.36V48.36ZM47.4038 50.4934L45.8438 44.8534L43.9162 45.3866L45.4762 51.0266L47.4038 50.4934ZM45.3761 45.9882C47.825 44.5889 50.598 43.88 53.72 43.88V41.88C50.282 41.88 47.1617 42.6644 44.3839 44.2518L45.3761 45.9882ZM53.72 43.88C56.2692 43.88 58.1435 44.4605 59.4586 45.5035L60.7014 43.9365C58.9232 42.5262 56.5574 41.88 53.72 41.88V43.88ZM59.467 45.5101C60.7488 46.5046 61.4 47.8552 61.4 49.68H63.4C63.4 47.2915 62.5045 45.3354 60.693 43.9299L59.467 45.5101ZM61.4 49.68C61.4 50.8377 61.1129 51.9042 60.5355 52.8974L62.2645 53.9026C63.0204 52.6025 63.4 51.1889 63.4 49.68H61.4ZM60.5318 52.9039C59.9796 53.8701 59.178 54.7036 58.0983 55.3994L59.1817 57.0806C60.502 56.2297 61.5404 55.1699 62.2682 53.8961L60.5318 52.9039ZM58.3064 57.1827C59.8855 57.7415 60.9297 58.5429 61.5541 59.5333L63.2459 58.4667C62.3237 57.0038 60.8611 55.9652 58.9736 55.2973L58.3064 57.1827ZM61.5679 59.5547C62.2728 60.612 62.6 61.6618 62.6 62.72H64.6C64.6 61.2182 64.1272 59.788 63.232 58.4453L61.5679 59.5547ZM62.6 62.72C62.6 64.3414 62.2151 65.6918 61.4827 66.8132L63.1573 67.9068C64.1316 66.4149 64.6 64.672 64.6 62.72H62.6ZM61.4827 66.8132C60.7409 67.9491 59.6917 68.8446 58.298 69.4934L59.142 71.3066C60.8416 70.5154 62.1924 69.3842 63.1573 67.9068L61.4827 66.8132ZM58.3109 69.4875C56.9187 70.1116 55.2503 70.44 53.28 70.44V72.44C55.4697 72.44 57.428 72.0751 59.1291 71.3125L58.3109 69.4875Z" fill="#050006" mask="url(#path-3-outside-1_370_283204)"/>
</svg>
