<svg width="16" height="16" viewBox="0 0 16 16" fill="none" xmlns="http://www.w3.org/2000/svg">
<g clip-path="url(#clip0_363_187443)">
<path d="M8 0.446426L9.98442 6.12705L16 6.25879L11.2108 9.90139L12.9442 15.6635L8 12.2341L3.05579 15.6635L4.7892 9.90139L0 6.25879L6.01559 6.12705L8 0.446426Z" fill="#F4CA51"/>
<path d="M16 6.25879L8 8.85827L9.98442 6.12705L16 6.25879ZM8 12.2341V8.85827L3.05579 15.6635L8 12.2341ZM8 8.85827L12.9442 15.6635L11.2108 9.90139L8 8.85827ZM6.01559 6.12705L8 8.85827V0.446426L6.01559 6.12705ZM4.7892 9.90139L8 8.85827L0 6.25879L4.7892 9.90139Z" fill="#A57D24"/>
</g>
<defs>
<clipPath id="clip0_363_187443">
<rect width="16" height="16" fill="white"/>
</clipPath>
</defs>
</svg>
