<svg width="16" height="16" viewBox="0 0 16 16" fill="none" xmlns="http://www.w3.org/2000/svg">
<g clip-path="url(#clip0_2509_101763)">
<path d="M8 0L9.98442 5.97291L16 6.11143L11.2108 9.94145L12.9442 16L8 12.3941L3.05579 16L4.7892 9.94145L0 6.11143L6.01559 5.97291L8 0Z" fill="#F4CA51"/>
<path d="M16 6.11143L8 8.84466L9.98442 5.97291L16 6.11143ZM8 12.3941V8.84466L3.05579 16L8 12.3941ZM8 8.84466L12.9442 16L11.2108 9.94145L8 8.84466ZM6.01559 5.97291L8 8.84466V0L6.01559 5.97291ZM4.7892 9.94145L8 8.84466L0 6.11143L4.7892 9.94145Z" fill="#A57D24"/>
</g>
<defs>
<clipPath id="clip0_2509_101763">
<rect width="16" height="16" fill="white"/>
</clipPath>
</defs>
</svg>

