<svg width="108" height="108" viewBox="0 0 108 108" fill="none" xmlns="http://www.w3.org/2000/svg">
<path d="M54 3L67.3948 41.3442L108 42.2335L75.6729 66.821L87.3734 105.715L54 82.5666L20.6266 105.715L32.3271 66.821L0 42.2335L40.6052 41.3442L54 3Z" fill="#F4CA51"/>
<path d="M108 42.2335L54 59.7799L67.3948 41.3442L108 42.2335ZM54 82.5666V59.7799L20.6266 105.715L54 82.5666ZM54 59.7799L87.3734 105.715L75.6729 66.821L54 59.7799ZM40.6052 41.3442L54 59.7799V3L40.6052 41.3442ZM32.3271 66.821L54 59.7799L0 42.2335L32.3271 66.821Z" fill="#A57D24"/>
<mask id="path-3-outside-1_370_283193" maskUnits="userSpaceOnUse" x="42" y="42" width="22" height="31" fill="black">
<rect fill="white" x="42" y="42" width="22" height="31"/>
<path d="M44.64 72V66.36C47.6267 63.5333 49.96 61.0667 51.64 58.96C53.32 56.8267 54.16 55.0533 54.16 53.64C54.16 52.7067 53.8933 52.0133 53.36 51.56C52.8267 51.08 52.1333 50.84 51.28 50.84C49.4933 50.84 47.7733 51.3867 46.12 52.48L44.16 46.24C45.3867 45.4667 46.7333 44.88 48.2 44.48C49.6933 44.08 51.16 43.88 52.6 43.88C54.7867 43.88 56.5867 44.2667 58 45.04C59.4133 45.8133 60.4667 46.8667 61.16 48.2C61.88 49.5333 62.24 51.0533 62.24 52.76C62.24 55.3467 61.4133 57.7333 59.76 59.92C58.1333 62.1067 55.6933 64.1867 52.44 66.16H62.08V72H44.64Z"/>
</mask>
<path d="M44.64 72V66.36C47.6267 63.5333 49.96 61.0667 51.64 58.96C53.32 56.8267 54.16 55.0533 54.16 53.64C54.16 52.7067 53.8933 52.0133 53.36 51.56C52.8267 51.08 52.1333 50.84 51.28 50.84C49.4933 50.84 47.7733 51.3867 46.12 52.48L44.16 46.24C45.3867 45.4667 46.7333 44.88 48.2 44.48C49.6933 44.08 51.16 43.88 52.6 43.88C54.7867 43.88 56.5867 44.2667 58 45.04C59.4133 45.8133 60.4667 46.8667 61.16 48.2C61.88 49.5333 62.24 51.0533 62.24 52.76C62.24 55.3467 61.4133 57.7333 59.76 59.92C58.1333 62.1067 55.6933 64.1867 52.44 66.16H62.08V72H44.64Z" fill="white"/>
<path d="M44.64 72H43.64V73H44.64V72ZM44.64 66.36L43.9526 65.6337L43.64 65.9296V66.36H44.64ZM51.64 58.96L52.4218 59.5835L52.4256 59.5787L51.64 58.96ZM53.36 51.56L52.691 52.3033L52.7016 52.3128L52.7124 52.3219L53.36 51.56ZM46.12 52.48L45.166 52.7797L45.5639 54.0466L46.6716 53.3141L46.12 52.48ZM44.16 46.24L43.6267 45.3941L42.9751 45.8048L43.206 46.5397L44.16 46.24ZM48.2 44.48L47.9413 43.514L47.9369 43.5152L48.2 44.48ZM61.16 48.2L60.2728 48.6614L60.2764 48.6683L60.2801 48.6751L61.16 48.2ZM59.76 59.92L58.9623 59.3169L58.9577 59.3231L59.76 59.92ZM52.44 66.16L51.9214 65.305L48.8631 67.16H52.44V66.16ZM62.08 66.16H63.08V65.16H62.08V66.16ZM62.08 72V73H63.08V72H62.08ZM45.64 72V66.36H43.64V72H45.64ZM45.3274 67.0863C48.3323 64.2424 50.7019 61.7402 52.4218 59.5835L50.8582 58.3365C49.2181 60.3931 46.9211 62.8243 43.9526 65.6337L45.3274 67.0863ZM52.4256 59.5787C54.1348 57.4084 55.16 55.407 55.16 53.64H53.16C53.16 54.6997 52.5052 56.245 50.8544 58.3413L52.4256 59.5787ZM55.16 53.64C55.16 52.5171 54.833 51.4996 54.0076 50.7981L52.7124 52.3219C52.9536 52.527 53.16 52.8963 53.16 53.64H55.16ZM54.029 50.8167C53.2783 50.1411 52.331 49.84 51.28 49.84V51.84C51.9357 51.84 52.375 52.0189 52.691 52.3033L54.029 50.8167ZM51.28 49.84C49.276 49.84 47.3668 50.4566 45.5684 51.6459L46.6716 53.3141C48.1799 52.3167 49.7106 51.84 51.28 51.84V49.84ZM47.074 52.1803L45.114 45.9403L43.206 46.5397L45.166 52.7797L47.074 52.1803ZM44.6933 47.0859C45.8323 46.3679 47.0873 45.82 48.4631 45.4448L47.9369 43.5152C46.3794 43.94 44.941 44.5655 43.6267 45.3941L44.6933 47.0859ZM48.4587 45.4459C49.8739 45.0669 51.2535 44.88 52.6 44.88V42.88C51.0665 42.88 49.5128 43.0931 47.9413 43.5141L48.4587 45.4459ZM52.6 44.88C54.6762 44.88 56.297 45.2481 57.52 45.9173L58.48 44.1627C56.8763 43.2852 54.8971 42.88 52.6 42.88V44.88ZM57.52 45.9173C58.7725 46.6026 59.6776 47.5168 60.2728 48.6614L62.0472 47.7386C61.2557 46.2165 60.0542 45.0241 58.48 44.1627L57.52 45.9173ZM60.2801 48.6751C60.9118 49.8449 61.24 51.198 61.24 52.76H63.24C63.24 50.9087 62.8482 49.2218 62.0399 47.7248L60.2801 48.6751ZM61.24 52.76C61.24 55.1155 60.4928 57.2928 58.9623 59.3169L60.5577 60.5231C62.3339 58.1739 63.24 55.5779 63.24 52.76H61.24ZM58.9577 59.3231C57.432 61.374 55.105 63.374 51.9214 65.305L52.9586 67.015C56.2817 64.9994 58.8346 62.8394 60.5623 60.5169L58.9577 59.3231ZM52.44 67.16H62.08V65.16H52.44V67.16ZM61.08 66.16V72H63.08V66.16H61.08ZM62.08 71H44.64V73H62.08V71Z" fill="#050006" mask="url(#path-3-outside-1_370_283193)"/>
</svg>
