<svg width="108" height="108" viewBox="0 0 108 108" fill="none" xmlns="http://www.w3.org/2000/svg">
<path d="M54 3L67.3948 41.3442L108 42.2335L75.6729 66.821L87.3734 105.715L54 82.5666L20.6266 105.715L32.3271 66.821L0 42.2335L40.6052 41.3442L54 3Z" fill="#F4CA51"/>
<path d="M108 42.2335L54 59.7799L67.3948 41.3442L108 42.2335ZM54 82.5666V59.7799L20.6266 105.715L54 82.5666ZM54 59.7799L87.3734 105.715L75.6729 66.821L54 59.7799ZM40.6052 41.3442L54 59.7799V3L40.6052 41.3442ZM32.3271 66.821L54 59.7799L0 42.2335L32.3271 66.821Z" fill="#A57D24"/>
<mask id="path-3-outside-1_370_283182" maskUnits="userSpaceOnUse" x="44" y="43" width="19" height="30" fill="black">
<rect fill="white" x="44" y="43" width="19" height="30"/>
<path d="M45.92 72V66.16H49.28V52.32H45.92V47.08C47.0667 47.08 48.32 46.8667 49.68 46.44C51.04 46.0133 52.3733 45.36 53.68 44.48H57.88V66.16H61.24V72H45.92Z"/>
</mask>
<path d="M45.92 72V66.16H49.28V52.32H45.92V47.08C47.0667 47.08 48.32 46.8667 49.68 46.44C51.04 46.0133 52.3733 45.36 53.68 44.48H57.88V66.16H61.24V72H45.92Z" fill="white"/>
<path d="M45.92 72H44.92V73H45.92V72ZM45.92 66.16V65.16H44.92V66.16H45.92ZM49.28 66.16V67.16H50.28V66.16H49.28ZM49.28 52.32H50.28V51.32H49.28V52.32ZM45.92 52.32H44.92V53.32H45.92V52.32ZM45.92 47.08V46.08H44.92V47.08H45.92ZM49.68 46.44L49.3807 45.4859L49.3807 45.4859L49.68 46.44ZM53.68 44.48V43.48H53.3747L53.1214 43.6506L53.68 44.48ZM57.88 44.48H58.88V43.48H57.88V44.48ZM57.88 66.16H56.88V67.16H57.88V66.16ZM61.24 66.16H62.24V65.16H61.24V66.16ZM61.24 72V73H62.24V72H61.24ZM46.92 72V66.16H44.92V72H46.92ZM45.92 67.16H49.28V65.16H45.92V67.16ZM50.28 66.16V52.32H48.28V66.16H50.28ZM49.28 51.32H45.92V53.32H49.28V51.32ZM46.92 52.32V47.08H44.92V52.32H46.92ZM45.92 48.08C47.1894 48.08 48.545 47.8441 49.9793 47.3941L49.3807 45.4859C48.095 45.8892 46.944 46.08 45.92 46.08V48.08ZM49.9793 47.3941C51.4404 46.9358 52.8603 46.2377 54.2386 45.3094L53.1214 43.6506C51.8864 44.4823 50.6396 45.0909 49.3807 45.4859L49.9793 47.3941ZM53.68 45.48H57.88V43.48H53.68V45.48ZM56.88 44.48V66.16H58.88V44.48H56.88ZM57.88 67.16H61.24V65.16H57.88V67.16ZM60.24 66.16V72H62.24V66.16H60.24ZM61.24 71H45.92V73H61.24V71Z" fill="#240727" mask="url(#path-3-outside-1_370_283182)"/>
</svg>
